<svg xmlns="http://www.w3.org/2000/svg" viewBox="0 0 800 800" height="100" width="100" preserveAspectRatio="none"><g style="line-height:1;font-variant-ligatures:normal;text-align:center" font-weight="400" font-size="72" font-family="Brandmark Sans 39" text-anchor="middle"><path style="line-height:1;font-variant-ligatures:normal;text-align:center" d="M80 610.876h52.747V432.255h59.94v-50.95h-59.94V254.234h71.928v-50.949H80z" fill="#aa8e5f"/><path style="line-height:1;font-variant-ligatures:normal;text-align:center" d="M278.973 491.595c0-16.183 11.988-23.976 28.77-23.976 16.784 0 28.772 7.793 28.772 23.976v41.359h-57.542zM231.02 610.876h47.952v-32.967h57.542v32.967h47.952V492.794c0-42.557-34.166-70.729-76.723-70.729s-76.723 28.172-76.723 70.73zm0-257.742c0 20.979 15.584 36.563 36.563 36.563h116.883v-44.955h-96.503c-4.795 0-8.991-4.195-8.991-8.99v-19.78h93.506V277.01h-93.506v-28.172h105.494v-44.955H231.021z" fill="#b69d70"/><path style="line-height:1;font-variant-ligatures:normal;text-align:center" d="M411.309 559.927v50.949h143.856v-50.949h-91.109l91.109-305.694v-50.949H411.309v50.949h91.109z" fill="#c3ac82"/><path style="line-height:1;font-variant-ligatures:normal;text-align:center" d="M657.784 392.095c42.558 0 76.723-28.172 76.723-70.73V203.285h-47.952v119.28c0 16.184-11.988 23.977-28.77 23.977-16.784 0-28.772-7.793-28.772-23.976V203.284h-47.952v118.082c0 42.557 34.166 70.729 76.723 70.729zm-76.723 218.781h47.952v-50.35h22.777c19.78 0 29.97 11.988 29.97 33.567v16.783h52.747v-14.985c0-22.777-17.382-44.356-43.756-53.347v-7.192c25.175-7.793 42.558-25.775 42.558-49.151v-4.196c0-32.967-20.98-56.943-70.13-56.943H581.06zm47.952-92.907v-47.952h33.566c16.784 0 28.772 10.79 28.772 23.976 0 13.187-11.988 23.976-28.772 23.976z" fill="#cfbb93"/></g></svg>