<svg version="1.0" width="128" height="128" xmlns="http://www.w3.org/2000/svg" viewBox="0 0 1024 1024"><path d="M777.9 208.2c-14.5 11.7-25.2 16.4-48.4 21.4-12 2.6-14.7 2.8-34 2.8-22.9 0-32.5-1.4-56.4-8.3-9.2-2.7-10.7-2.9-13-1.7-4.3 2.2-20.4 5.8-24.7 5.4-3.8-.3-3.6-.4 5.9-4.2 5.4-2.1 9.6-4.1 9.3-4.4-.3-.3-4.8-1.3-9.8-2.3l-9.3-1.8-10.5 4.1c-10 3.9-25.2 7.3-28.8 6.6-.9-.2 4.4-2.8 11.8-5.7 7.4-2.9 13.9-5.6 14.3-6 .4-.4-2-1.1-5.5-1.5-3.5-.3-10.6-1.3-15.8-2.1-13.4-2.1-44.6-3.8-57-3-42.9 2.5-69.4 9.8-88.5 24.3-8.2 6.2-20.2 17.8-19.4 18.6.2.3 2.8-1.1 5.8-2.9 18-11.4 45.4-17.6 70.4-16.1 30.3 1.9 43.6 6.4 95.3 32.1 56.1 27.9 68.2 32.4 91.9 34.5 23.8 2.1 59.9-3 71-10.1 3.6-2.3 3.4-2.3-8-.4-9.9 1.6-25.9 2-19.5.4 1.9-.4 7.3-1.5 11.9-2.4 26.5-5.1 40.5-17.2 55.6-48 5.1-10.4 13.3-33.1 12.3-34-.3-.3-3.4 1.8-6.9 4.7z"/><path d="M455.7 235.1c-4.9.4-9.1 1-9.5 1.3-.3.3 4.4.6 10.4.6 11.4 0 25.1 1.8 34.4 4.6 8.9 2.6 39.9 15.3 47 19.2 16 8.9 37.3 22.5 46.3 29.5 5.3 4.2 11.8 9 14.3 10.8 6.1 4.2 18 9.6 22.9 10.4 3.9.7 3.8.6-3-3.6-4.8-2.9-12.1-9.3-23-20.3l-16-16.1-23.5-11.7c-33.7-16.8-52-22.6-78.4-24.8-7.1-.5-12.9-.9-13-.9-.1.1-4.1.5-8.9 1zm120.1 41.3c7.9 7.4 16.6 17.6 12.7 14.9-5.3-3.7-12.1-10.1-17.6-16.5-6.4-7.3-3.5-6.4 4.9 1.6z"/><path d="M515.4 258.9c.4.6 2.4 2 4.3 3l3.6 1.8-7.4 4.3c-16.1 9.3-31.9 23.5-40.8 36.8-11.3 16.7-25 51.5-30.1 75.9-1.4 6.9-6 41.7-6 45.8 0 .3 1.9-.4 4.2-1.6 11.3-5.8 46.9-17.6 69.6-23.1l9.2-2.2v-7.1c0-20.9 4.1-43.3 11.5-62.1 6.4-16.5 13.4-28.4 25.5-43.4l5.1-6.4-2.3-1.8c-5.3-4.2-25.1-16.1-29.6-17.8-6.1-2.3-17.8-3.8-16.8-2.1zM588 276.3c.3.2 5.9 5.1 12.5 10.9 16.3 14.2 23.1 19 31.9 22.7 21.2 8.8 48.4 5.5 82.2-10 9.9-4.5 11.4-6.2 3.7-4.2-11.3 2.9-22.1 4.4-36.9 5-29.8 1.2-46.8-3-85.9-21.2-4.4-2-7.8-3.5-7.5-3.2zM692.5 379.1c-9.7 7.7-22.3 13.5-38.5 17.8-9.5 2.5-26.5 5-70.5 10.1-66.7 7.8-81.9 11.4-123.4 28.7-25.2 10.5-40.3 18.8-67.1 36.6-29.4 19.6-56.7 44.4-79 71.7-15.8 19.4-27.5 39.1-36.4 61.6-5.1 12.9-4.4 13.7 1.3 1.7 9.4-19.4 26.8-42.8 41.8-55.9 20-17.7 31.9-24.5 63.3-36.4 31.2-11.8 55.3-16.5 98-19 20.3-1.3 34.9-.9 61 1.6 21 1.9 29.3 1.8 41.3-.7 23.4-4.8 36.8-11.1 55.7-26.4 5.4-4.4 9.9-8.2 9.9-8.5.1-.3-5.2-.5-11.7-.5-7 0-12.5-.5-13.7-1.2-2.2-1.3-3-1 12.5-3.2 26.9-3.7 37.9-14.1 51.5-48.6 3.9-9.9 10.1-32.2 9.2-33.1-.1-.2-2.5 1.5-5.2 3.7z"/><path d="M446 506.1c-4.1.5-8 1.1-8.6 1.3-.7.3-1.5 3.7-1.9 7.8-1.3 13.4-9.5 68.1-12.6 83.8-7.1 36.3-14.3 59-26.8 85.4-7.5 15.9-26.3 41.6-36.5 50-12.4 10.1-33.8 22.6-47.5 27.6-5.1 1.9-6 2.5-4.5 3.1 3 1.2 9.9 1 23.4-.6 25.2-2.9 53.7-11.3 74.8-21.9 8.8-4.4 26.9-16.4 35.7-23.6 24.7-20.2 48.6-56.3 59.4-90 11.5-35.8 21.6-85.6 22.3-110.5l.1-6.9-11.9-2.2c-22.1-4.2-46.9-5.4-65.4-3.3zM985.9 986.7l-2.4 2.8 2.8-2.4c2.5-2.3 3.2-3.1 2.4-3.1-.2 0-1.4 1.2-2.8 2.7zM981.7 989.6c-.3.4-2.1 1-3.9 1.4-2.9.7-3 .8-.7.9 1.4.1 3.4-.6 4.5-1.4 1-.8 1.6-1.5 1.3-1.5-.3 0-.8.3-1.2.6zM956.5 992c2.7 1.2 4.3 1.2 2.5 0-.8-.5-2.2-.9-3-.9-1 0-.8.3.5.9zM969.1 993.6c0 1.1.3 1.4.6.6.3-.7.2-1.6-.1-1.9-.3-.4-.6.2-.5 1.3zM986.3 995.7c-2.6 1-1.2 1.9 2.2 1.5 1.9-.2 3.2-.8 2.9-1.3-.6-1-3.1-1.1-5.1-.2zM957.3 996.7c.9.2 2.5.2 3.5 0 .9-.3.1-.5-1.8-.5-1.9 0-2.7.2-1.7.5zM998.5 997c-.3.5-.2 1 .4 1 .5 0 1.3-.5 1.6-1 .3-.6.2-1-.4-1-.5 0-1.3.4-1.6 1zM950.2 1000c0 1.4.2 1.9.5 1.2.2-.6.2-1.8 0-2.5-.3-.6-.5-.1-.5 1.3zM1006.2 1000.5c0 1.6.2 2.2.5 1.2.2-.9.2-2.3 0-3-.3-.6-.5.1-.5 1.8zM957 1000c-.8.5-1.2 1.1-.9 1.4.2.3 1.1.1 1.9-.4.8-.5 1.2-1.1.9-1.4-.2-.3-1.1-.1-1.9.4zM986 1000c-1 .6-1.2 1.2-.4 2 .7.7 1.6.5 2.9-1 1.4-1.5 1.5-2 .4-2-.8 0-2.1.5-2.9 1zM944 1001c.8.5 2.2 1 3 1 1.3 0 1.3-.1 0-1-.8-.5-2.2-1-3-1-1.3 0-1.3.1 0 1zM998.1 1001.7c0 1 .3 1.3.5.6.3-.7 1.2-.9 2-.6.8.3 1.4 0 1.4-.6s-.9-1.1-2-1.1c-1.3 0-2 .6-1.9 1.7zM952.6 1002.7c-.6 1.9-1.6 2.3-6.9 2.6l-6.2.3 6.1.2c6.3.2 9.1-1.2 8.2-4-.3-.8-.8-.4-1.2.9zM991 1005c-.8.5-1 1-.5 1 .6 0 1.7-.5 2.5-1s1.1-1 .5-1c-.5 0-1.7.5-2.5 1zM996.7 1005.1c.7.7 1.5 1 1.8.7.3-.3-.2-.9-1.2-1.2-1.4-.6-1.5-.5-.6.5zM958.8 1005.7c1.2.2 3 .2 4 0 .9-.3-.1-.5-2.3-.4-2.2 0-3 .2-1.7.4zM967 1006c0 .5.7 1 1.5 1s1.5-.5 1.5-1c0-.6-.7-1-1.5-1s-1.5.4-1.5 1z"/></svg>