<svg version="1.0" width="128" height="128" xmlns="http://www.w3.org/2000/svg" viewBox="0 0 1024.000000 1024.000000"
 preserveAspectRatio="xMidYMid meet">

<g transform="translate(0.000000,1024.000000) scale(0.100000,-0.100000)"
fill="#000000" stroke="none">
<path d="M7779 8158 c-145 -117 -252 -164 -484 -214 -120 -26 -147 -28 -340
-28 -229 0 -325 14 -564 83 -92 27 -107 29 -130 17 -43 -22 -204 -58 -247 -54
-38 3 -36 4 59 42 54 21 96 41 93 44 -3 3 -48 13 -98 23 l-93 18 -105 -41
c-100 -39 -252 -73 -288 -66 -9 2 44 28 118 57 74 29 139 56 143 60 4 4 -20
11 -55 15 -35 3 -106 13 -158 21 -134 21 -446 38 -570 30 -429 -25 -694 -98
-885 -243 -82 -62 -202 -178 -194 -186 2 -3 28 11 58 29 180 114 454 176 704
161 303 -19 436 -64 953 -321 561 -279 682 -324 919 -345 238 -21 599 30 710
101 36 23 34 23 -80 4 -99 -16 -259 -20 -195 -4 19 4 73 15 119 24 265 51 405
172 556 480 51 104 133 331 123 340 -3 3 -34 -18 -69 -47z"/>
<path d="M4557 7889 c-49 -4 -91 -10 -95 -13 -3 -3 44 -6 104 -6 114 0 251
-18 344 -46 89 -26 399 -153 470 -192 160 -89 373 -225 463 -295 53 -42 118
-90 143 -108 61 -42 180 -96 229 -104 39 -7 38 -6 -30 36 -48 29 -121 93 -230
203 l-160 161 -235 117 c-337 168 -520 226 -784 248 -71 5 -129 9 -130 9 -1
-1 -41 -5 -89 -10z m1201 -413 c79 -74 166 -176 127 -149 -53 37 -121 101
-176 165 -64 73 -35 64 49 -16z"/>
<path d="M5154 7651 c4 -6 24 -20 43 -30 l36 -18 -74 -43 c-161 -93 -319 -235
-408 -368 -113 -167 -250 -515 -301 -759 -14 -69 -60 -417 -60 -458 0 -3 19 4
42 16 113 58 469 176 696 231 l92 22 0 71 c0 209 41 433 115 621 64 165 134
284 255 434 l51 64 -23 18 c-53 42 -251 161 -296 178 -61 23 -178 38 -168 21z"/>
<path d="M5880 7477 c3 -2 59 -51 125 -109 163 -142 231 -190 319 -227 212
-88 484 -55 822 100 99 45 114 62 37 42 -113 -29 -221 -44 -369 -50 -298 -12
-468 30 -859 212 -44 20 -78 35 -75 32z"/>
<path d="M6925 6449 c-97 -77 -223 -135 -385 -178 -95 -25 -265 -50 -705 -101
-667 -78 -819 -114 -1234 -287 -252 -105 -403 -188 -671 -366 -294 -196 -567
-444 -790 -717 -158 -194 -275 -391 -364 -616 -51 -129 -44 -137 13 -17 94
194 268 428 418 559 200 177 319 245 633 364 312 118 553 165 980 190 203 13
349 9 610 -16 210 -19 293 -18 413 7 234 48 368 111 557 264 54 44 99 82 99
85 1 3 -52 5 -117 5 -70 0 -125 5 -137 12 -22 13 -30 10 125 32 269 37 379
141 515 486 39 99 101 322 92 331 -1 2 -25 -15 -52 -37z"/>
<path d="M4460 5179 c-41 -5 -80 -11 -86 -13 -7 -3 -15 -37 -19 -78 -13 -134
-95 -681 -126 -838 -71 -363 -143 -590 -268 -854 -75 -159 -263 -416 -365
-500 -124 -101 -338 -226 -475 -276 -51 -19 -60 -25 -45 -31 30 -12 99 -10
234 6 252 29 537 113 748 219 88 44 269 164 357 236 247 202 486 563 594 900
115 358 216 856 223 1105 l1 69 -119 22 c-221 42 -469 54 -654 33z"/>
<path d="M9859 373 l-24 -28 28 24 c25 23 32 31 24 31 -2 0 -14 -12 -28 -27z"/>
<path d="M9817 344 c-3 -4 -21 -10 -39 -14 -29 -7 -30 -8 -7 -9 14 -1 34 6 45
14 10 8 16 15 13 15 -3 0 -8 -3 -12 -6z"/>
<path d="M9565 320 c27 -12 43 -12 25 0 -8 5 -22 9 -30 9 -10 0 -8 -3 5 -9z"/>
<path d="M9691 304 c0 -11 3 -14 6 -6 3 7 2 16 -1 19 -3 4 -6 -2 -5 -13z"/>
<path d="M9863 283 c-26 -10 -12 -19 22 -15 19 2 32 8 29 13 -6 10 -31 11 -51
2z"/>
<path d="M9573 273 c9 -2 25 -2 35 0 9 3 1 5 -18 5 -19 0 -27 -2 -17 -5z"/>
<path d="M9985 270 c-3 -5 -2 -10 4 -10 5 0 13 5 16 10 3 6 2 10 -4 10 -5 0
-13 -4 -16 -10z"/>
<path d="M9502 240 c0 -14 2 -19 5 -12 2 6 2 18 0 25 -3 6 -5 1 -5 -13z"/>
<path d="M10062 235 c0 -16 2 -22 5 -12 2 9 2 23 0 30 -3 6 -5 -1 -5 -18z"/>
<path d="M9570 240 c-8 -5 -12 -11 -9 -14 2 -3 11 -1 19 4 8 5 12 11 9 14 -2
3 -11 1 -19 -4z"/>
<path d="M9860 240 c-10 -6 -12 -12 -4 -20 7 -7 16 -5 29 10 14 15 15 20 4 20
-8 0 -21 -5 -29 -10z"/>
<path d="M9440 230 c8 -5 22 -10 30 -10 13 0 13 1 0 10 -8 5 -22 10 -30 10
-13 0 -13 -1 0 -10z"/>
<path d="M9981 223 c0 -10 3 -13 5 -6 3 7 12 9 20 6 8 -3 14 0 14 6 0 6 -9 11
-20 11 -13 0 -20 -6 -19 -17z"/>
<path d="M9526 213 c-6 -19 -16 -23 -69 -26 l-62 -3 61 -2 c63 -2 91 12 82 40
-3 8 -8 4 -12 -9z"/>
<path d="M9910 190 c-8 -5 -10 -10 -5 -10 6 0 17 5 25 10 8 5 11 10 5 10 -5 0
-17 -5 -25 -10z"/>
<path d="M9967 189 c7 -7 15 -10 18 -7 3 3 -2 9 -12 12 -14 6 -15 5 -6 -5z"/>
<path d="M9588 183 c12 -2 30 -2 40 0 9 3 -1 5 -23 4 -22 0 -30 -2 -17 -4z"/>
<path d="M9670 180 c0 -5 7 -10 15 -10 8 0 15 5 15 10 0 6 -7 10 -15 10 -8 0
-15 -4 -15 -10z"/>
</g>
</svg>